<?xml version="1.0" standalone="no"?>
<!DOCTYPE svg PUBLIC "-//W3C//DTD SVG 20010904//EN"
 "http://www.w3.org/TR/2001/REC-SVG-20010904/DTD/svg10.dtd">
<svg version="1.0" xmlns="http://www.w3.org/2000/svg"
 width="456.000000pt" height="456.000000pt" viewBox="0 0 456.000000 456.000000"
 preserveAspectRatio="xMidYMid meet">
<metadata>
Created by potrace 1.11, written by Peter Selinger 2001-2013
</metadata>
<g transform="translate(0.000000,456.000000) scale(0.100000,-0.100000)"
fill="#000000" stroke="none">
<path d="M1941 4489 c-873 -132 -1592 -773 -1827 -1628 -101 -368 -101 -814 0
-1182 236 -859 958 -1500 1835 -1629 188 -27 474 -27 662 0 974 143 1746 915
1889 1889 27 188 27 474 0 662 -143 974 -915 1746 -1889 1889 -183 27 -491 26
-670 -1z m326 -321 c-2 -7 -17 -53 -32 -103 -15 -49 -30 -93 -34 -97 -3 -4
-51 -12 -106 -18 -144 -16 -234 -36 -370 -81 -551 -187 -967 -638 -1109 -1204
-13 -53 -46 -273 -46 -310 0 -9 -31 -24 -88 -41 -48 -15 -93 -29 -99 -31 -17
-7 -17 106 -2 232 50 413 264 837 570 1131 339 325 806 527 1233 533 67 1 87
-2 83 -11z m258 1 c121 -15 330 -68 446 -114 583 -230 1013 -718 1164 -1319
37 -145 55 -273 55 -384 0 -72 -1 -73 -22 -66 -13 4 -61 19 -108 33 l-85 27
-8 54 c-24 170 -42 265 -68 353 -133 446 -448 817 -879 1032 -159 80 -387 146
-552 161 -112 10 -111 9 -142 115 -15 51 -30 99 -33 106 -7 17 103 18 232 2z
m-502 -781 c-90 -288 -170 -547 -179 -577 l-16 -53 -89 88 c-49 49 -89 96 -89
105 0 9 9 41 19 72 l19 56 -151 98 c-84 53 -212 137 -285 184 l-133 87 73 62
c273 231 610 368 979 399 13 1 -19 -110 -148 -521z m492 502 c258 -37 528
-147 730 -299 81 -61 175 -141 175 -150 0 -4 -123 -87 -274 -185 l-275 -177
20 -56 c10 -31 19 -63 19 -72 0 -9 -40 -56 -89 -105 l-89 -88 -16 53 c-9 30
-89 289 -179 576 l-163 521 30 -3 c17 -2 67 -9 111 -15z m-1142 -877 l98 -151
56 19 c31 10 63 19 72 19 9 0 56 -40 105 -89 73 -73 85 -90 70 -94 -11 -3
-273 -85 -583 -182 -310 -97 -565 -174 -567 -172 -8 7 24 223 45 305 68 264
214 531 394 719 l40 42 86 -132 c48 -73 131 -200 184 -284z m2153 320 c163
-192 282 -422 345 -665 16 -64 47 -256 49 -299 0 -3 -235 68 -522 158 -288 90
-547 170 -577 179 l-53 16 88 89 c49 49 96 89 105 89 9 0 41 -9 72 -19 l56
-20 177 275 c98 151 181 274 185 274 5 0 38 -35 75 -77z m-3044 -1107 l87 -26
6 -48 c19 -156 37 -258 60 -337 167 -576 634 -1024 1222 -1174 67 -17 285 -51
328 -51 9 0 25 -36 46 -102 18 -57 34 -109 36 -115 4 -10 -14 -13 -68 -13
-111 0 -240 18 -385 55 -684 172 -1217 705 -1389 1389 -37 145 -55 274 -55
385 0 54 3 72 13 68 6 -2 51 -16 99 -31z m3708 -43 c0 -106 -24 -263 -60 -401
-193 -739 -822 -1299 -1581 -1407 -133 -19 -263 -20 -256 -2 2 6 18 58 36 114
36 116 13 101 186 123 268 33 548 149 780 324 374 280 612 696 664 1161 6 49
14 92 18 96 7 6 185 65 206 68 4 1 7 -34 7 -76z m-2983 -183 c318 -100 578
-182 579 -183 2 -1 -37 -43 -86 -93 l-90 -91 -69 22 -70 23 -118 -182 c-64
-99 -146 -225 -181 -280 l-64 -98 -30 28 c-16 16 -57 63 -91 104 -183 226
-308 508 -347 780 -19 136 -20 150 -15 150 3 0 265 -81 582 -180z m2707 128
c-25 -249 -114 -514 -239 -708 -56 -88 -160 -223 -202 -263 l-29 -27 -178 274
-177 274 -56 -19 c-31 -10 -63 -19 -72 -19 -9 0 -56 40 -105 89 l-88 88 89 28
c99 30 1057 332 1060 334 1 1 0 -23 -3 -51z m-1909 -917 c97 -310 174 -565
172 -567 -7 -8 -222 24 -307 46 -243 61 -499 193 -683 352 -47 41 -56 53 -45
63 7 7 133 90 279 184 l267 172 -22 69 -23 70 91 90 c50 49 92 88 93 86 1 -1
82 -255 178 -565z m905 378 c0 -9 -9 -41 -19 -72 l-20 -56 267 -172 c147 -94
271 -175 275 -179 5 -4 -25 -37 -67 -72 -192 -164 -432 -288 -676 -349 -80
-19 -281 -50 -288 -44 -2 2 74 250 168 552 94 301 174 556 177 567 4 15 21 3
94 -70 49 -49 89 -96 89 -105z"/>
</g>
</svg>
